HIERARCHY
ROOT hip
{
	OFFSET 0.000000 0.000000 0.000000 
	CHANNELS 6 Xposition Yposition Zposition Xrotation Zrotation Yrotation
	JOINT abdomen
	{
		OFFSET 0.000000 3.402643 0.000000 
		CHANNELS 3 Xrotation Zrotation Yrotation
		JOINT chest
		{
			OFFSET 0.000000 8.438565 -0.680529 
			CHANNELS 3 Xrotation Zrotation Yrotation
			JOINT neck
			{
				OFFSET 0.000000 10.207942 -0.272212 
				CHANNELS 3 Xrotation Zrotation Yrotation
				JOINT head
				{
					OFFSET 0.000000 3.130431 0.000000 
					CHANNELS 3 Xrotation Zrotation Yrotation
					End Site
					{
						OFFSET 0.000000 3.130435 0.000000 
					}
				}
			}
			JOINT lCollar
			{
				OFFSET 3.470700 6.669187 -0.816635 
				CHANNELS 3 Yrotation Zrotation Xrotation
				JOINT lShldr
				{
					OFFSET 3.198488 0.000000 0.000000 
					CHANNELS 3 Zrotation Yrotation Xrotation
					JOINT lForeArm
					{
						OFFSET 10.139888 0.000000 0.000000 
						CHANNELS 3 Yrotation Zrotation Xrotation
						JOINT lHand
						{
							OFFSET 8.370511 0.000000 0.000000 
							CHANNELS 3 Zrotation Yrotation Xrotation
							End Site
							{
								OFFSET 4.083176 0.000000 0.000000 
							}
						}
					}
				}
			}
			JOINT rCollar
			{
				OFFSET -3.470700 6.669187 -0.816635 
				CHANNELS 3 Yrotation Zrotation Xrotation
				JOINT rShldr
				{
					OFFSET -3.198488 0.000000 0.000000 
					CHANNELS 3 Zrotation Yrotation Xrotation
					JOINT rForeArm
					{
						OFFSET -10.139888 0.000000 0.000000 
						CHANNELS 3 Yrotation Zrotation Xrotation
						JOINT rHand
						{
							OFFSET -8.370511 0.000000 0.000000 
							CHANNELS 3 Zrotation Yrotation Xrotation
							End Site
							{
								OFFSET -4.083176 0.000000 0.000000 
							}
						}
					}
				}
			}
		}
	}
	JOINT lThigh
	{
		OFFSET 5.308129 -1.633274 1.361059 
		CHANNELS 3 Xrotation Zrotation Yrotation
		JOINT lShin
		{
			OFFSET -2.041588 -20.007561 0.000000 
			CHANNELS 3 Xrotation Zrotation Yrotation
			JOINT lFoot
			{
				OFFSET 0.000000 -19.190928 -1.224953 
				CHANNELS 3 Xrotation Yrotation Zrotation
				End Site
				{
					OFFSET 0.000000 -2.449906 4.627600 
				}
			}
		}
	}
	JOINT rThigh
	{
		OFFSET -5.308129 -1.633274 1.361059 
		CHANNELS 3 Xrotation Zrotation Yrotation
		JOINT rShin
		{
			OFFSET 2.041588 -20.007561 0.000000 
			CHANNELS 3 Xrotation Zrotation Yrotation
			JOINT rFoot
			{
				OFFSET 0.000000 -19.190928 -1.224953 
				CHANNELS 3 Xrotation Yrotation Zrotation
				End Site
				{
					OFFSET 0.000000 -2.449906 4.627600 
				}
			}
		}
	}
}
MOTION
Frames: 19
Frame Time: 0.033333
-1.516384 51.379868 3.295114 -3.007812 -1.582031 -75.527611 68.921448 -8.495138 -1.499804 -17.246092 15.039063 -3.893950 51.063168 8.107644 2.471410 -106.513672 -1.474609 -29.052736 2.000000 -2.000000 0.000000 -53.515625 26.835938 -72.573715 -122.052254 1.642976 -2.576157 28.289362 39.877911 -10.874475 -2.000000 2.000000 0.000000 80.869141 -21.728516 -47.675777 119.894272 -1.816482 -2.957203 -8.183679 -59.109474 0.812826 9.172641 1.368246 22.450653 20.962172 -5.471487 -1.897417 -13.175920 2.508255 -13.675843 -29.263887 -26.976194 -17.113983 67.118401 1.777170 4.404659 6.805308 -15.486607 8.246053 
-3.032769 51.230190 6.590179 -0.722656 -1.240234 -76.123047 70.590469 -1.475824 -2.628759 -18.798828 13.583985 -4.931641 51.063168 8.107644 2.471410 -101.679688 3.437500 -31.542387 2.000000 -2.000000 0.000000 -52.998047 30.488285 -52.011719 -129.431870 2.020030 -2.148963 29.332180 38.794037 -7.178575 -2.000000 2.000000 0.000000 81.621094 -29.482422 -35.590744 126.576523 -1.908334 -3.060295 -62.706581 -43.051495 35.363155 12.657678 -1.021902 20.321426 16.893522 -5.546485 -1.365747 -11.530827 0.031418 -23.381372 -34.068237 -19.605349 -15.819422 65.903305 2.060666 3.978796 7.307900 -5.413285 6.721928 
-4.746650 50.875679 10.015695 1.406250 -0.878906 -76.689606 71.855469 4.423766 -3.066496 -20.136719 12.451172 -5.615234 51.063168 8.107644 2.471410 -97.187500 7.275390 -33.494858 2.000000 -2.000000 0.000000 -54.560547 28.740234 -33.847656 -129.793777 1.900984 -2.513259 30.583319 37.131081 0.222544 -2.000000 2.000000 0.000000 77.783203 -36.542973 -23.140579 130.452972 -2.016969 -2.705125 -80.355583 -27.749355 43.974297 15.577218 -2.973819 17.596106 13.542205 -5.695262 -0.795546 -6.420844 -2.532501 -30.725988 -35.238266 -13.267361 -15.999969 60.979149 2.294811 4.220671 7.451662 1.475300 5.302572 
-6.849710 51.301090 13.562203 3.164063 -0.722656 -77.236450 72.942429 7.394431 -2.779548 -21.435549 11.816405 -5.810546 51.063168 8.107644 2.471410 -93.691406 8.720703 -35.809067 2.000000 -2.000000 0.000000 -59.960941 20.664061 -18.154297 -115.573753 0.871526 -3.059157 29.633633 37.180706 7.805230 -2.000000 2.000000 0.000000 72.314453 -39.101563 -15.966799 130.641785 -1.864513 -2.803847 -70.506821 -30.441645 51.040268 7.332618 -1.034605 17.077477 27.317696 -5.245325 -2.470543 18.173357 -4.097952 -36.760906 -30.024084 -7.956552 -14.675811 50.806332 3.112882 3.915404 7.139818 3.792131 4.406598 
-9.150290 50.749626 17.239124 4.384766 -0.878906 -77.441406 73.765167 5.893467 -1.529404 -22.685547 11.865234 -5.535101 51.063168 8.107644 2.471410 -92.617188 5.361328 -37.148438 2.000000 -2.000000 0.000000 -67.060547 12.353517 -2.927597 -94.148636 0.042271 -3.020828 27.393223 38.670376 15.404889 -2.000000 2.000000 0.000000 68.642578 -37.978516 -14.335937 127.828674 -1.904640 -2.786617 -45.951172 -46.124794 53.674095 14.778031 -3.745894 15.195046 15.674989 -5.635652 -1.270248 28.859688 -10.988124 -43.352356 -20.972990 -4.041879 -12.733494 38.328850 3.980407 2.990931 5.703640 3.253512 3.470254 
-11.270790 51.805283 21.205921 3.867188 -1.943359 -77.500336 74.380318 1.276690 0.405949 -24.111330 12.265625 -4.746094 51.063168 8.107644 2.471410 -92.578125 -1.054687 -38.076172 2.000000 -2.000000 0.000000 -71.972656 11.250001 7.785110 -80.969223 -0.492398 -2.794246 23.538570 40.476501 18.654287 -2.000000 2.000000 0.000000 68.906250 -37.353516 -15.390626 125.720505 -1.834136 -2.821641 -25.223320 -56.869209 47.746311 8.382742 1.562470 15.258836 28.392218 -5.179080 -2.569104 32.473396 -13.911363 -44.466541 -13.492286 -3.641099 -11.013968 29.352581 4.535723 1.934270 3.969215 4.539446 2.709048 
-13.130808 51.513802 25.446272 2.275391 -3.876953 -77.168633 74.261971 -4.278867 2.399895 -24.990234 13.007813 -4.179688 51.063168 8.107644 2.471410 -91.718750 -5.644530 -40.654301 2.000000 -2.000000 0.000000 -73.662109 16.503906 9.475430 -80.972397 -0.655165 -2.902142 17.187395 42.728592 17.209156 -2.000000 2.000000 0.000000 70.351563 -37.167969 -13.834024 125.715370 -1.834287 -2.987567 -30.619413 -56.655338 49.132710 -2.109258 9.406755 15.635921 47.852863 -3.479867 -3.841119 33.279396 -6.367033 -36.669090 -4.608903 -8.249990 -12.202018 24.950851 4.628610 2.099762 -5.283932 7.160984 -1.297775 
-14.913783 51.190804 29.814030 0.869141 -4.921875 -75.341797 73.200272 -8.548421 4.362844 -25.126953 13.886720 -4.128516 51.063168 8.107644 2.471410 -89.433594 -4.951171 -44.921879 2.000000 -2.000000 0.000000 -75.917969 24.707033 4.013672 -86.600800 -0.437702 -3.032095 8.538130 45.077896 12.033864 -2.000000 2.000000 0.000000 70.263672 -35.458984 -9.478321 126.246979 -1.865078 -2.794101 -45.894787 -51.525009 51.272911 -13.347526 18.208103 14.192803 66.784424 -2.388668 -4.582330 27.855394 6.626016 -25.234142 -5.057916 -15.236880 -13.934035 33.239670 4.228036 2.694875 2.718530 8.006491 -6.949523 
-16.638090 50.733868 34.274704 0.703125 -4.580078 -70.761726 69.895065 -10.999038 6.692806 -23.447266 15.058595 -5.537110 51.063168 8.107644 2.471410 -87.060547 -2.187500 -47.568359 2.000000 -2.000000 0.000000 -80.351563 31.826176 -6.811255 -94.684746 -0.297484 -3.314065 0.340764 46.354954 5.514071 -2.000000 2.000000 0.000000 70.253906 -32.314453 -7.148438 125.358162 -1.825830 -3.133750 -56.204414 -47.363850 49.010296 -20.846252 24.154085 13.294600 76.221123 -1.560307 -4.848003 20.700541 15.636422 -14.198767 -8.339386 -20.582130 -15.537969 38.852261 3.899538 3.113226 27.707092 2.865191 -12.264990 
-18.321894 50.607819 38.793121 1.054688 -3.515614 -64.785828 65.210121 -12.318046 9.118667 -20.429688 16.630859 -7.851563 51.063168 8.107644 2.471410 -86.337891 -0.693359 -47.841797 2.000000 -2.000000 0.000000 -84.453125 34.960938 -17.133074 -102.036644 0.544562 -2.961965 -5.446390 45.820507 -0.180389 -2.000000 2.000000 0.000000 72.880859 -28.173828 -10.830078 121.503380 -1.685073 -2.861889 -55.626923 -46.052029 38.444389 -20.448940 25.545973 15.105020 66.950394 -2.349236 -4.590306 17.355921 14.207679 -4.716801 -1.339638 -23.227055 -19.408287 31.332413 3.979272 2.632643 38.216183 1.282533 -13.796696 
-19.983595 50.324207 43.334568 1.572266 -2.988281 -61.640625 62.822277 -12.106152 9.536498 -18.515627 17.724613 -8.486328 51.063168 8.107644 2.471410 -89.707031 -2.119127 -44.795105 2.000000 -2.000000 0.000000 -84.443359 33.681644 -27.064896 -108.174286 0.953881 -2.819480 -5.913004 44.642189 -3.406286 -2.000000 2.000000 0.000000 75.712891 -23.554688 -15.814451 116.238426 -1.307990 -3.123363 -51.770412 -45.070271 25.994337 -14.529564 24.269724 19.858215 45.533291 -3.948252 -3.541679 16.008451 6.083317 2.925032 7.533338 -23.753180 -23.305342 18.987959 4.437588 1.707200 52.691784 -0.677778 -17.456440 
-21.612436 52.230709 47.895119 1.933594 -3.359375 -63.076744 63.734249 -10.590024 6.828585 -18.085938 18.388672 -6.835937 51.063168 8.107644 2.471410 -95.527336 -3.994140 -40.108105 2.000000 -2.000000 0.000000 -80.322266 29.746092 -37.597660 -114.701775 0.663247 -2.939515 -2.391601 42.737759 -6.038457 -2.000000 2.000000 0.000000 77.460938 -21.132811 -18.232422 113.070427 -1.179958 -2.969287 -48.375603 -45.655754 20.830151 -7.705351 21.044838 24.476612 28.833364 -4.561284 -2.791382 10.378681 -4.201000 7.335795 0.780663 -24.657539 -21.626863 27.096590 4.106325 2.325252 55.064686 -5.787703 -17.538046 
-23.198341 52.356758 52.489330 2.275391 -3.876953 -66.631523 65.716568 -8.302380 2.946990 -17.851563 18.896482 -3.844494 51.063168 8.107644 2.471410 -99.580070 -4.433594 -36.797630 2.000000 -2.000000 0.000000 -74.082031 25.507814 -45.650093 -121.015266 1.402910 -2.835986 2.119029 40.808647 -8.017595 -2.000000 2.000000 0.000000 78.251953 -23.271484 -17.220654 113.599319 -1.021149 -3.008994 -46.636402 -50.882454 31.422756 2.858641 15.397128 28.226194 22.883669 -4.795227 -2.108712 -5.546740 -5.255517 3.137844 -11.034980 -24.274078 -17.838778 40.263042 3.818210 3.168956 48.767658 -7.173400 -13.262522 
-24.760302 52.081028 57.109463 2.812500 -4.394531 -70.742935 68.029739 -5.281825 -1.298952 -18.027344 19.082033 -0.709698 51.063168 8.107644 2.471410 -100.498047 -2.822265 -36.201653 2.000000 -2.000000 0.000000 -68.300789 22.128908 -49.902348 -126.624962 1.812802 -2.683817 3.940104 39.367477 -10.648895 -2.000000 2.000000 0.000000 78.173828 -28.115236 -14.203820 116.418213 -0.939942 -3.229032 -49.635933 -58.378277 52.576736 9.310133 10.261072 30.363972 21.097166 -4.871395 -1.974522 -12.468948 -3.812699 -0.526848 -24.909906 -21.725471 -13.675300 54.665150 2.802485 3.953782 38.183823 -5.380229 -6.659918 
-26.317392 51.631973 61.748222 3.867188 -4.394532 -73.985123 70.164078 -2.204865 -5.277257 -18.203125 19.101563 1.865235 51.063168 8.107644 2.471410 -99.921875 -0.224609 -37.158199 2.000000 -2.000000 0.000000 -60.937500 17.421877 -45.104496 -131.009460 2.134848 -2.360664 5.081014 38.112125 -11.485072 -2.000000 2.000000 0.000000 78.076172 -32.812504 -12.475996 119.400009 -1.215359 -3.372028 -53.180000 -62.831013 69.094139 13.104415 5.606171 30.440798 19.899466 -5.506151 -1.536977 -14.446588 -1.614612 -3.140024 -36.551403 -17.977730 -10.337831 66.405609 1.874987 4.383667 25.876534 -4.038661 0.289717 
-27.888950 51.104141 66.398102 6.152344 -3.173828 -76.464844 71.390831 0.641322 -8.160970 -18.632814 18.427736 3.193359 51.063168 8.107644 2.471410 -98.359375 2.900391 -38.505856 2.000000 -2.000000 0.000000 -53.945313 9.628906 -35.105789 -133.995682 2.226561 -2.297563 5.414087 37.117565 -11.243054 -2.000000 2.000000 0.000000 80.488281 -35.712891 -15.898438 122.206779 -1.684508 -2.871634 -47.782578 -65.406746 67.600914 15.512521 0.685916 29.297680 16.367500 -5.191207 -1.616536 -13.019304 1.676711 -9.538569 -42.434769 -14.362025 -8.979512 71.849579 1.396496 4.669290 16.863735 -3.241007 4.781260 
-29.493837 50.615696 71.051682 8.945313 -1.220703 -78.437706 71.886795 3.758348 -10.059577 -19.521484 16.582033 1.904297 51.063168 8.107644 2.471410 -95.429688 6.914062 -38.896484 2.000000 -2.000000 0.000000 -52.226563 3.593750 -25.166016 -132.941574 2.205928 -2.315917 6.596061 36.225586 -9.483451 -2.000000 2.000000 0.000000 84.072266 -37.832031 -19.966928 125.369820 -1.803193 -2.849182 -37.232235 -65.684387 57.306858 16.011930 -2.976151 26.618616 13.551534 -5.280717 -1.358449 -4.962636 3.802952 -17.117962 -41.138454 -10.125519 -9.515604 67.118530 1.796749 4.407460 12.223244 -2.791791 7.031819 
-31.151377 50.544796 75.701202 10.009766 0.000000 -78.232422 71.984612 7.093575 -11.125358 -20.810549 13.349610 -1.230468 51.063168 8.107644 2.471410 -92.158203 10.722656 -36.787109 2.000000 -2.000000 0.000000 -58.837894 0.185547 -14.628906 -124.516258 1.743427 -2.699339 8.431809 35.633110 -5.858688 -2.000000 2.000000 0.000000 86.425781 -39.306641 -22.294922 128.356537 -1.913259 -2.806673 -28.590624 -64.596565 47.120934 13.766963 -4.577613 24.121689 16.541233 -5.328624 -1.297595 14.718810 1.616995 -24.429258 -34.145191 -5.320773 -9.956169 54.498470 2.978376 3.872467 8.766123 -2.328218 7.508902 
-32.960037 50.875679 80.300049 8.964845 -0.175781 -76.337921 71.794991 9.436495 -11.703574 -21.660156 10.605470 -4.267578 51.063168 8.107644 2.471410 -89.570313 12.499999 -32.890625 2.000000 -2.000000 0.000000 -69.765625 -0.273438 -4.589840 -111.701027 0.736332 -3.197860 10.940543 35.295361 -0.339879 -2.000000 2.000000 0.000000 85.097656 -41.064449 -20.751951 130.815933 -2.003828 -2.763033 -23.822580 -63.159626 40.803356 6.812524 -0.467775 22.105774 27.851952 -5.703310 -2.330975 18.687757 1.261797 -27.821808 -25.149252 -1.600469 -10.358754 39.738762 4.009417 3.153853 6.113544 0.325232 6.194090 
